<?xml version="1.0" standalone="no"?>
<!DOCTYPE svg PUBLIC "-//W3C//DTD SVG 20010904//EN"
 "http://www.w3.org/TR/2001/REC-SVG-20010904/DTD/svg10.dtd">
<svg version="1.0" xmlns="http://www.w3.org/2000/svg"
 width="311.000000pt" height="379.000000pt" viewBox="0 0 311.000000 379.000000"
 preserveAspectRatio="xMidYMid meet">

<g transform="translate(0.000000,379.000000) scale(0.100000,-0.100000)"
fill="#000000" stroke="none">
<path d="M1355 3654 c-192 -30 -365 -114 -499 -243 -183 -176 -276 -396 -276
-651 0 -258 96 -480 282 -655 221 -208 526 -289 812 -215 168 43 299 119 421
245 126 130 210 292 240 460 95 548 -298 1041 -845 1060 -58 2 -118 1 -135 -1z"/>
<path d="M829 1636 c-59 -16 -116 -50 -214 -129 -233 -189 -403 -466 -483
-787 -21 -86 -26 -130 -26 -240 l-1 -136 37 -75 c65 -132 181 -223 317 -249
73 -14 1938 -14 2012 0 167 31 307 171 349 349 32 137 -28 435 -130 646 -76
159 -160 277 -284 401 -235 235 -349 272 -615 200 -183 -50 -249 -60 -376 -53
-83 5 -146 16 -260 47 -161 43 -241 49 -326 26z"/>
</g>
</svg>
